# xmcd
#
# Track frame offsets: 
#        150
#        13761
#        47930
#        80660
#        109048
#        141228
#
# Disc length: 2243 seconds
#
# Revision: 1
# Processed by: cddbd v1.5.1PL0 Copyright (c) Steve Scherf et al.
# Submitted via: ExactAudioCopy v0.95b3
#
DISCID=4e08c106
DTITLE=Freemasons Feat. Amanda Wilson - Love On My Mind
DYEAR=2005
DGENRE=House
TTITLE0=Love On My Mind (Radio Edit)
TTITLE1=Love On My Mind (Back To Philly Remix)
TTITLE2=Love On My Mind (Full Intention Club Mix)
TTITLE3=Love On My Mind (King Unique Remix)
TTITLE4=Love On My Mind (Sharp Boys Remix)
TTITLE5=Love On My Mind (Coburn Remix)
EXTD=YEAR: 2005
EXTT0=
EXTT1=
EXTT2=
EXTT3=
EXTT4=
EXTT5=
PLAYORDER=
